<?xml version="1.0" encoding="UTF-8"?>
<svg version="1.1" xmlns="http://www.w3.org/2000/svg" width="438" height="407">
<path d="M0 0 C4.0956794 1.60731604 7.25695595 4.2119488 10.6875 6.9296875 C11.81744385 7.8115271 11.81744385 7.8115271 12.97021484 8.71118164 C30.36795443 22.37082306 47.45940752 37.15252208 61.8828125 53.96875 C63.90401276 56.30494251 65.98128839 58.58433601 68.0625 60.8671875 C82.8705533 77.34270226 95.71901456 95.44048196 107.6875 114.0546875 C108.20666992 114.86099609 108.72583984 115.66730469 109.26074219 116.49804688 C127.77113741 145.417023 142.98232784 175.78070248 154.6875 208.0546875 C154.99026855 208.88307129 155.29303711 209.71145508 155.60498047 210.56494141 C164.69252816 235.68555791 172.21833278 264.13004031 170.6875 291.0546875 C168.99081793 292.75136957 166.87617982 292.17437743 164.61309814 292.17910767 C163.88733582 292.17551239 163.16157349 292.17191711 162.41381836 292.16821289 C161.27243156 292.16843193 161.27243156 292.16843193 160.10798645 292.1686554 C157.58107702 292.16795612 155.05424038 292.16016305 152.52734375 292.15234375 C150.7799941 292.15047962 149.03264393 292.1490557 147.28529358 292.14805603 C142.67718066 292.14423043 138.06909905 292.13439979 133.46099854 292.12335205 C128.76241479 292.11313884 124.06382601 292.1085586 119.36523438 292.10351562 C110.13930913 292.09277755 100.91340716 292.07570063 91.6875 292.0546875 C89.76318359 285.35546875 89.76318359 285.35546875 89.08203125 282.6484375 C86.44782019 273.17234937 79.03846056 268.37418923 71.625 262.44140625 C69.676076 260.8579055 67.75832277 259.23520481 65.875 257.57421875 C48.07895105 241.97849651 20.57028049 227.81608509 -3.51953125 228.60546875 C-30.92626699 231.85137463 -56.39022214 245.95203172 -76.40625 264.51953125 C-78.66885701 266.34167173 -81.05749013 267.5758425 -83.625 268.9296875 C-87.20701366 271.00088251 -88.98377583 272.43220541 -90.375 276.3671875 C-91.32572869 280.26253423 -91.77111667 284.20728297 -92.00390625 288.20703125 C-92.3125 290.0546875 -92.3125 290.0546875 -94.3125 292.0546875 C-96.80659647 292.24769008 -99.18914153 292.3170621 -101.68383789 292.29760742 C-102.44330215 292.29950577 -103.20276642 292.30140411 -103.98524475 292.30335999 C-106.50198607 292.30707246 -109.01844047 292.29635786 -111.53515625 292.28515625 C-113.27868109 292.28396471 -115.02220658 292.28351123 -116.76573181 292.2837677 C-120.42174287 292.28220207 -124.07765612 292.27390573 -127.73364258 292.26049805 C-132.43051567 292.24349551 -137.1272813 292.23968401 -141.82418156 292.24044323 C-145.42456598 292.24017191 -149.0249267 292.23469712 -152.62530327 292.22744179 C-154.35773985 292.22424983 -156.09017912 292.22228649 -157.82261848 292.22154808 C-160.23864489 292.21939078 -162.65455503 292.21066027 -165.07055664 292.19995117 C-165.79317688 292.20040436 -166.51579712 292.20085754 -167.26031494 292.20132446 C-172.19802496 292.16916254 -172.19802496 292.16916254 -173.3125 291.0546875 C-179.50787489 214.6789184 -126.87398549 131.37765922 -81.3125 74.0546875 C-80.87808594 73.50554687 -80.44367188 72.95640625 -79.99609375 72.390625 C-74.56170912 65.53935461 -68.76417882 59.06445345 -62.80664062 52.67089844 C-61.19567346 50.9283163 -59.60455489 49.16894006 -58.015625 47.40625 C-57.47075439 46.80538574 -56.92588379 46.20452148 -56.36450195 45.58544922 C-55.30439369 44.41617208 -54.24810579 43.24341759 -53.19604492 42.06689453 C-51.94201828 40.69145598 -50.63180603 39.36764053 -49.3125 38.0546875 C-48.6525 38.0546875 -47.9925 38.0546875 -47.3125 38.0546875 C-47.3125 37.3946875 -47.3125 36.7346875 -47.3125 36.0546875 C-46.01953125 34.75 -46.01953125 34.75 -44.125 33.1796875 C-41.00235221 30.54121332 -38.0097658 27.81731152 -35.06323242 24.98364258 C-26.48423404 16.79855729 -17.02714406 9.83127942 -7.3125 3.0546875 C-6.405 2.40628906 -5.4975 1.75789063 -4.5625 1.08984375 C-2.3125 0.0546875 -2.3125 0.0546875 0 0 Z M-3.72265625 110.19921875 C-8.0749788 114.59269802 -12.00308926 119.2383265 -15.875 124.05859375 C-17.94100132 126.5980537 -20.05761119 129.07978154 -22.20581055 131.54956055 C-27.17098248 137.2867153 -31.78386238 143.2334985 -36.25 149.3671875 C-36.79366211 150.10783447 -37.33732422 150.84848145 -37.89746094 151.61157227 C-41.22685598 156.24523966 -43.88948584 160.88753682 -46.3125 166.0546875 C-38.5720871 165.16626134 -31.10703523 163.11207285 -23.56054688 161.2265625 C0.1744473 155.39641342 20.71554839 160.28517519 43.6875 167.0546875 C39.98797365 147.80834208 15.58015217 125.96800797 2.6875 112.0546875 C2.15125 111.46945313 1.615 110.88421875 1.0625 110.28125 C-0.84883162 108.57625532 -1.73970618 108.58978836 -3.72265625 110.19921875 Z " fill="#1765A4" transform="translate(218.3125,44.9453125)"/>
<path d="M0 0 C2.77409209 2.63680895 4.97488488 5.24042802 7.03125 8.46484375 C7.8668042 9.77183228 7.8668042 9.77183228 8.71923828 11.10522461 C9.30688965 12.03987549 9.89454102 12.97452637 10.5 13.9375 C11.1172998 14.91533447 11.73459961 15.89316895 12.37060547 16.90063477 C43.43827158 66.48373699 74.28335968 126.60668159 74.125 186.625 C74.12757813 187.62789062 74.13015625 188.63078125 74.1328125 189.6640625 C74 192 74 192 73 193 C70.56603981 193.09498646 68.16057048 193.12558417 65.72631836 193.11352539 C64.58493156 193.11374443 64.58493156 193.11374443 63.42048645 193.1139679 C60.89357702 193.11326862 58.36674038 193.10547555 55.83984375 193.09765625 C54.0924941 193.09579212 52.34514393 193.0943682 50.59779358 193.09336853 C45.98968066 193.08954293 41.38159905 193.07971229 36.77349854 193.06866455 C32.07491479 193.05845134 27.37632601 193.0538711 22.67773438 193.04882812 C13.45180913 193.03809005 4.22590716 193.02101313 -5 193 C-6.92431641 186.30078125 -6.92431641 186.30078125 -7.60546875 183.59375 C-10.23967981 174.11766187 -17.64903944 169.31950173 -25.0625 163.38671875 C-27.011424 161.803218 -28.92917723 160.18051731 -30.8125 158.51953125 C-48.60854895 142.92380901 -76.11721951 128.76139759 -100.20703125 129.55078125 C-127.61376699 132.79668713 -153.07772214 146.89734422 -173.09375 165.46484375 C-175.35635701 167.28698423 -177.74499013 168.521155 -180.3125 169.875 C-183.89451366 171.94619501 -185.67127583 173.37751791 -187.0625 177.3125 C-188.01322869 181.20784673 -188.45861667 185.15259547 -188.69140625 189.15234375 C-189 191 -189 191 -191 193 C-194.125 193.125 -194.125 193.125 -197 193 C-197 192.34 -197 191.68 -197 191 C-196.01 190.67 -195.02 190.34 -194 190 C-194.08378906 189.30132812 -194.16757813 188.60265625 -194.25390625 187.8828125 C-194.35574219 186.97273437 -194.45757812 186.06265625 -194.5625 185.125 C-194.66691406 184.22007812 -194.77132812 183.31515625 -194.87890625 182.3828125 C-195 180 -195 180 -194 178 C-193.84995027 176.6265365 -193.75161994 175.2471474 -193.68359375 173.8671875 C-193.64169922 173.06152344 -193.59980469 172.25585938 -193.55664062 171.42578125 C-193.51732422 170.58402344 -193.47800781 169.74226562 -193.4375 168.875 C-193.39431641 168.02550781 -193.35113281 167.17601562 -193.30664062 166.30078125 C-193.20045764 164.20071777 -193.09971503 162.10038052 -193 160 C-192.34 160 -191.68 160 -191 160 C-190.814375 158.4840625 -190.814375 158.4840625 -190.625 156.9375 C-190.02240519 153.14115267 -189.07269965 149.68811575 -188 146 C-187.62516009 144.58953191 -187.2542138 143.17802459 -186.88671875 141.765625 C-184.59903009 133.09032087 -182.01535858 125.05748621 -178 117 C-177.38900631 115.60714151 -176.78474438 114.21130921 -176.1875 112.8125 C-171.71192017 102.75139654 -166.62422898 92.95462526 -161.3125 83.3125 C-160.77846558 82.32431274 -160.77846558 82.32431274 -160.23364258 81.31616211 C-157.94921253 77.23392305 -155.37529157 74.28528379 -152 71 C-150.83330214 69.06557546 -150.83330214 69.06557546 -150.1875 67.1875 C-149.795625 66.135625 -149.40375 65.08375 -149 64 C-148.34 64 -147.68 64 -147 64 C-146.731875 63.195625 -146.46375 62.39125 -146.1875 61.5625 C-145.795625 60.716875 -145.40375 59.87125 -145 59 C-144.01 58.67 -143.02 58.34 -142 58 C-141.4122403 56.11613497 -141.4122403 56.11613497 -141 54 C-139.53842536 51.45732411 -137.78255654 49.12382277 -136.0625 46.75 C-135.60681641 46.1003125 -135.15113281 45.450625 -134.68164062 44.78125 C-133.50907797 43.14687276 -132.25988848 41.56804756 -131 40 C-130.34 40 -129.68 40 -129 40 C-128.731875 39.236875 -128.46375 38.47375 -128.1875 37.6875 C-127.04204753 35.09516021 -126.23584819 33.69924463 -124 32 C-123.01 32 -122.02 32 -121 32 C-121 31.34 -121 30.68 -121 30 C-120.34 30 -119.68 30 -119 30 C-119 29.34 -119 28.68 -119 28 C-118.34 28 -117.68 28 -117 28 C-116.9071875 26.700625 -116.9071875 26.700625 -116.8125 25.375 C-115.74311743 20.93294933 -114.26123261 19.18539 -111 16 C-109.68 16 -108.36 16 -107 16 C-107 14.68 -107 13.36 -107 12 C-105.68 12 -104.36 12 -103 12 C-103 11.34 -103 10.68 -103 10 C-102.34 10 -101.68 10 -101 10 C-101 9.34 -101 8.68 -101 8 C-100.34 8 -99.68 8 -99 8 C-99 7.34 -99 6.68 -99 6 C-97.68 6 -96.36 6 -95 6 C-95 6.66 -95 7.32 -95 8 C-94.34 8 -93.68 8 -93 8 C-93 8.66 -93 9.32 -93 10 C-91.9171875 10.2784375 -91.9171875 10.2784375 -90.8125 10.5625 C-87.43790347 12.28729378 -86.29685231 14.10726088 -84.25 17.203125 C-82.46210163 19.77322891 -80.23720386 21.81872623 -78 24 C-73 29.50684932 -73 29.50684932 -73 32 C-72.34 32 -71.68 32 -71 32 C-69.69067383 33.40185547 -69.69067383 33.40185547 -68.20703125 35.3671875 C-67.66224121 36.08358398 -67.11745117 36.79998047 -66.55615234 37.53808594 C-65.98074707 38.30926758 -65.4053418 39.08044922 -64.8125 39.875 C-63.93392334 41.03950684 -63.93392334 41.03950684 -63.03759766 42.22753906 C-48 62.24151786 -48 62.24151786 -48 66 C-47.34 66 -46.68 66 -46 66 C-43.84260551 68.34499401 -42.62530106 70.77198831 -41.4375 73.6875 C-40.38993022 77.07272892 -40.38993022 77.07272892 -38 78 C-37 79.92578125 -37 79.92578125 -36 82.3125 C-33.9419647 87.75781537 -33.9419647 87.75781537 -30.57421875 92.37109375 C-28.36457264 94.65750176 -27.21254756 97.21746508 -25.8125 100.0625 C-25.28269531 101.12597656 -24.75289062 102.18945312 -24.20703125 103.28515625 C-23 106 -23 106 -23 108 C-22.34 108.33 -21.68 108.66 -21 109 C-19.96005433 111.30273685 -19.02069323 113.57922989 -18.125 115.9375 C-17.58999342 117.3151623 -17.05483698 118.69276641 -16.51953125 120.0703125 C-16.25994629 120.74481445 -16.00036133 121.41931641 -15.73291016 122.11425781 C-14.79463333 124.52839846 -13.80267659 126.91925466 -12.8125 129.3125 C-10.88338051 134.11511964 -9.39859487 139.02015464 -8 144 C-7.67 144 -7.34 144 -7 144 C-6.15818641 148.37312746 -5.32226122 152.74732995 -4.49145508 157.12255859 C-4.20883777 158.60658094 -3.92469527 160.09031377 -3.63891602 161.57373047 C-3.22517541 163.72286292 -2.81718324 165.87302465 -2.41015625 168.0234375 C-2.16402588 169.31169434 -1.91789551 170.59995117 -1.66430664 171.92724609 C-0.90388811 176.58924605 -0.47001664 181.29983359 0 186 C34.155 186.495 34.155 186.495 69 187 C67.28018761 175.53458406 65.55347461 164.13287327 63.55078125 152.72265625 C63.10729253 149.72517576 62.87605288 147.01604665 63 144 C62.34 144 61.68 144 61 144 C60.87044922 143.08734375 60.87044922 143.08734375 60.73828125 142.15625 C59.34799392 133.48289784 56.73564914 125.32180292 54 117 C53.67 117 53.34 117 53 117 C52.01 111.06 52.01 111.06 51 105 C50.34 105 49.68 105 49 105 C48.731875 104.05125 48.46375 103.1025 48.1875 102.125 C47.55035103 99.87893529 46.88988134 97.64439731 46.19921875 95.4140625 C45.92722656 94.53492188 45.65523437 93.65578125 45.375 92.75 C45.11460937 91.91984375 44.85421875 91.0896875 44.5859375 90.234375 C44 88 44 88 44 85 C43.34 85 42.68 85 42 85 C40.57806953 82.04416887 39.16248463 79.08535645 37.75 76.125 C37.33322998 75.25182129 36.91645996 74.37864258 36.48706055 73.47900391 C34.44011869 69.15799543 32.47692789 64.86109748 30.8125 60.375 C29.24780746 56.24794398 27.06704346 52.8555103 24.46484375 49.30078125 C22.9469427 46.91666467 21.90226777 44.47428195 20.82788086 41.86645508 C19.1158696 38.00673048 16.85110337 34.4354822 14.69726562 30.81054688 C12 26.20167556 12 26.20167556 12 24 C11.34 24 10.68 24 10 24 C8.59765625 21.953125 8.59765625 21.953125 7.0625 19.25 C5.5815022 16.65920077 4.17198566 14.21758185 2.3203125 11.875 C0.46677812 9.24276183 0.78624139 7.13512632 1 4 C0.34 4 -0.32 4 -1 4 C-0.67 2.68 -0.34 1.36 0 0 Z M-100.41015625 11.14453125 C-104.7624788 15.53801052 -108.69058926 20.183639 -112.5625 25.00390625 C-114.62850132 27.5433662 -116.74511119 30.02509404 -118.89331055 32.49487305 C-123.85848248 38.2320278 -128.47136238 44.178811 -132.9375 50.3125 C-133.48116211 51.05314697 -134.02482422 51.79379395 -134.58496094 52.55688477 C-137.91435598 57.19055216 -140.57698584 61.83284932 -143 67 C-135.2595871 66.11157384 -127.79453523 64.05738535 -120.24804688 62.171875 C-96.5130527 56.34172592 -75.97195161 61.23048769 -53 68 C-56.69952635 48.75365458 -81.10734783 26.91332047 -94 13 C-94.53625 12.41476563 -95.0725 11.82953125 -95.625 11.2265625 C-97.53633162 9.52156782 -98.42720618 9.53510086 -100.41015625 11.14453125 Z " fill="#06265E" transform="translate(315,144)"/>
<path d="M0 0 C1.32 0 2.64 0 4 0 C4 0.66 4 1.32 4 2 C4.66 2 5.32 2 6 2 C6 2.66 6 3.32 6 4 C7.0828125 4.2784375 7.0828125 4.2784375 8.1875 4.5625 C11.56209653 6.28729378 12.70314769 8.10726088 14.75 11.203125 C16.53789837 13.77322891 18.76279614 15.81872623 21 18 C26 23.50684932 26 23.50684932 26 26 C26.66 26 27.32 26 28 26 C29.30932617 27.40185547 29.30932617 27.40185547 30.79296875 29.3671875 C31.33775879 30.08358398 31.88254883 30.79998047 32.44384766 31.53808594 C33.01925293 32.30926758 33.5946582 33.08044922 34.1875 33.875 C35.06607666 35.03950684 35.06607666 35.03950684 35.96240234 36.22753906 C51 56.24151786 51 56.24151786 51 60 C51.66 60 52.32 60 53 60 C55.15739449 62.34499401 56.37469894 64.77198831 57.5625 67.6875 C58.61006978 71.07272892 58.61006978 71.07272892 61 72 C61.72693904 73.97888961 62.39816251 75.97954558 63 78 C62.01 77.34 61.02 76.68 60 76 C60 75.34 60 74.68 60 74 C58.68 74 57.36 74 56 74 C56 73.34 56 72.68 56 72 C55.34 72 54.68 72 54 72 C52.35 69.03 50.7 66.06 49 63 C48.34 63 47.68 63 47 63 C45.84375 61.3046875 45.84375 61.3046875 44.5 58.875 C33.20631572 39.45970742 18.0594197 20.67423067 2 5 C-15.85572078 12.23217981 -32.53854074 43.45648817 -43 59 C-43.99 58.67 -44.98 58.34 -46 58 C-46.18949219 58.86431641 -46.18949219 58.86431641 -46.3828125 59.74609375 C-47.00586135 62.02140507 -47.82610005 63.9525036 -48.875 66.0625 C-49.20242187 66.73410156 -49.52984375 67.40570313 -49.8671875 68.09765625 C-51 70 -51 70 -52.41796875 71.3203125 C-54.74737717 73.79351157 -56.00128819 76.7712976 -57.4375 79.8125 C-59.64517092 84.46101159 -62.11783301 88.73079015 -65 93 C-66.00484883 95.33124929 -67.00522247 97.66443537 -68 100 C-68.47695312 100.60972656 -68.95390625 101.21945313 -69.4453125 101.84765625 C-71.28833092 104.39917169 -72.23077456 106.85727072 -73.3125 109.8125 C-73.7353125 110.946875 -74.158125 112.08125 -74.59375 113.25 C-74.81804687 113.85328125 -75.04234375 114.4565625 -75.2734375 115.078125 C-76.57052107 118.50912024 -77.94363167 121.90965199 -79.3125 125.3125 C-79.57909424 125.97677002 -79.84568848 126.64104004 -80.12036133 127.32543945 C-80.7461087 128.88394728 -81.37293066 130.4420236 -82 132 C-82.66 132 -83.32 132 -84 132 C-84.03738281 132.60585938 -84.07476562 133.21171875 -84.11328125 133.8359375 C-84.54933319 139.39346216 -85.58332957 144.29897213 -87.30078125 149.59375 C-88.30532985 153.05074408 -88.66856405 156.42049178 -89 160 C-89.66 160 -90.32 160 -91 160 C-91.09087891 161.59328125 -91.09087891 161.59328125 -91.18359375 163.21875 C-92.00202111 177.15671621 -92.00202111 177.15671621 -93 184 C-95.28639008 181.52307741 -95.97637294 180.29533822 -96.25 176.875 C-96 174 -96 174 -95 172 C-94.84995027 170.6265365 -94.75161994 169.2471474 -94.68359375 167.8671875 C-94.64169922 167.06152344 -94.59980469 166.25585938 -94.55664062 165.42578125 C-94.49766602 164.16314453 -94.49766602 164.16314453 -94.4375 162.875 C-94.39431641 162.02550781 -94.35113281 161.17601562 -94.30664062 160.30078125 C-94.20045764 158.20071777 -94.09971503 156.10038052 -94 154 C-93.34 154 -92.68 154 -92 154 C-91.814375 152.4840625 -91.814375 152.4840625 -91.625 150.9375 C-91.02240519 147.14115267 -90.07269965 143.68811575 -89 140 C-88.62516009 138.58953191 -88.2542138 137.17802459 -87.88671875 135.765625 C-85.59903009 127.09032087 -83.01535858 119.05748621 -79 111 C-78.38900631 109.60714151 -77.78474438 108.21130921 -77.1875 106.8125 C-72.71192017 96.75139654 -67.62422898 86.95462526 -62.3125 77.3125 C-61.77846558 76.32431274 -61.77846558 76.32431274 -61.23364258 75.31616211 C-58.94921253 71.23392305 -56.37529157 68.28528379 -53 65 C-51.83330214 63.06557546 -51.83330214 63.06557546 -51.1875 61.1875 C-50.795625 60.135625 -50.40375 59.08375 -50 58 C-49.34 58 -48.68 58 -48 58 C-47.731875 57.195625 -47.46375 56.39125 -47.1875 55.5625 C-46.795625 54.716875 -46.40375 53.87125 -46 53 C-45.01 52.67 -44.02 52.34 -43 52 C-42.4122403 50.11613497 -42.4122403 50.11613497 -42 48 C-40.53842536 45.45732411 -38.78255654 43.12382277 -37.0625 40.75 C-36.60681641 40.1003125 -36.15113281 39.450625 -35.68164062 38.78125 C-34.50907797 37.14687276 -33.25988848 35.56804756 -32 34 C-31.34 34 -30.68 34 -30 34 C-29.731875 33.236875 -29.46375 32.47375 -29.1875 31.6875 C-28.04204753 29.09516021 -27.23584819 27.69924463 -25 26 C-24.01 26 -23.02 26 -22 26 C-22 25.34 -22 24.68 -22 24 C-21.34 24 -20.68 24 -20 24 C-20 23.34 -20 22.68 -20 22 C-19.34 22 -18.68 22 -18 22 C-17.9071875 20.700625 -17.9071875 20.700625 -17.8125 19.375 C-16.74311743 14.93294933 -15.26123261 13.18539 -12 10 C-10.68 10 -9.36 10 -8 10 C-8 8.68 -8 7.36 -8 6 C-6.68 6 -5.36 6 -4 6 C-4 5.34 -4 4.68 -4 4 C-3.34 4 -2.68 4 -2 4 C-2 3.34 -2 2.68 -2 2 C-1.34 2 -0.68 2 0 2 C0 1.34 0 0.68 0 0 Z " fill="#154985" transform="translate(216,150)"/>
<path d="M0 0 C2.77409209 2.63680895 4.97488488 5.24042802 7.03125 8.46484375 C7.58828613 9.33616943 8.14532227 10.20749512 8.71923828 11.10522461 C9.30688965 12.03987549 9.89454102 12.97452637 10.5 13.9375 C11.1172998 14.91533447 11.73459961 15.89316895 12.37060547 16.90063477 C68.83888385 107.02238415 68.83888385 107.02238415 67 143 C66.67 143 66.34 143 66 143 C65.67 146.3 65.34 149.6 65 153 C63.11656068 149.23312136 62.77942165 147.97041037 63 144 C62.34 144 61.68 144 61 144 C60.91363281 143.3915625 60.82726562 142.783125 60.73828125 142.15625 C59.34799392 133.48289784 56.73564914 125.32180292 54 117 C53.67 117 53.34 117 53 117 C52.34 113.04 51.68 109.08 51 105 C50.34 105 49.68 105 49 105 C48.731875 104.05125 48.46375 103.1025 48.1875 102.125 C47.55035103 99.87893529 46.88988134 97.64439731 46.19921875 95.4140625 C45.92722656 94.53492188 45.65523438 93.65578125 45.375 92.75 C44.98441406 91.50476563 44.98441406 91.50476563 44.5859375 90.234375 C44 88 44 88 44 85 C43.34 85 42.68 85 42 85 C40.57806953 82.04416887 39.16248463 79.08535645 37.75 76.125 C37.33322998 75.25182129 36.91645996 74.37864258 36.48706055 73.47900391 C34.44011869 69.15799543 32.47692789 64.86109748 30.8125 60.375 C29.24780746 56.24794398 27.06704346 52.8555103 24.46484375 49.30078125 C22.9469427 46.91666467 21.90226777 44.47428195 20.82788086 41.86645508 C19.1158696 38.00673048 16.85110337 34.4354822 14.69726562 30.81054688 C12 26.20167556 12 26.20167556 12 24 C11.34 24 10.68 24 10 24 C8.59765625 21.953125 8.59765625 21.953125 7.0625 19.25 C5.5815022 16.65920077 4.17198566 14.21758185 2.3203125 11.875 C0.46677812 9.24276183 0.78624139 7.13512632 1 4 C0.34 4 -0.32 4 -1 4 C-0.67 2.68 -0.34 1.36 0 0 Z " fill="#092D6C" transform="translate(315,144)"/>
<path d="M0 0 C2.03295898 1.22753906 2.03295898 1.22753906 3.99609375 2.765625 C4.71990234 3.32636719 5.44371094 3.88710938 6.18945312 4.46484375 C6.93130859 5.05394531 7.67316406 5.64304687 8.4375 6.25 C9.54448242 7.11044922 9.54448242 7.11044922 10.67382812 7.98828125 C12.11997583 9.11691919 13.55950036 10.25410391 14.99169922 11.40039062 C16.26983112 12.41842129 17.56195434 13.41930327 18.87158203 14.39648438 C20.53515625 15.671875 20.53515625 15.671875 23 18 C23 19.32 23 20.64 23 22 C23.66 22 24.32 22 25 22 C25.99 24.97 25.99 24.97 27 28 C25.68 27.67 24.36 27.34 23 27 C23 26.34 23 25.68 23 25 C21.68 25 20.36 25 19 25 C19 22.69 19 20.38 19 18 C17.515 18.495 17.515 18.495 16 19 C13.3125 18.5625 13.3125 18.5625 11 18 C11 17.34 11 16.68 11 16 C10.34 16 9.68 16 9 16 C9 15.01 9 14.02 9 13 C7.68 12.67 6.36 12.34 5 12 C5 12.66 5 13.32 5 14 C4.34 14 3.68 14 3 14 C2.690625 12.576875 2.690625 12.576875 2.375 11.125 C1.28325652 7.8117604 1.28325652 7.8117604 -1.6875 6.4375 C-6.05783948 5.86028535 -8.23904478 6.75789208 -12 9 C-13.45291273 11.46255685 -13.45291273 11.46255685 -14 14 C-14.33 14.66 -14.66 15.32 -15 16 C-15.86625 16.2475 -16.7325 16.495 -17.625 16.75 C-23.1581079 18.79929922 -26.89265638 22.88193225 -31 27 C-35.43747295 31.31665067 -38.8863842 33.75232331 -45 35 C-45 37.31 -45 39.62 -45 42 C-45.928125 42.226875 -46.85625 42.45375 -47.8125 42.6875 C-51.17172289 43.68538361 -51.17172289 43.68538361 -52.4375 46.5625 C-52.953125 47.366875 -53.46875 48.17125 -54 49 C-57.5625 49.75 -57.5625 49.75 -61 50 C-61.99 50.495 -61.99 50.495 -63 51 C-61.42491141 47.33620697 -59.15806427 44.70148695 -56.5 41.75 C-55.7059375 40.85796875 -54.911875 39.9659375 -54.09375 39.046875 C-52 37 -52 37 -50 37 C-50 36.34 -50 35.68 -50 35 C-48.70703125 33.6953125 -48.70703125 33.6953125 -46.8125 32.125 C-43.68985221 29.48652582 -40.6972658 26.76262402 -37.75073242 23.92895508 C-29.17173404 15.74386979 -19.71464406 8.77659192 -10 2 C-9.0925 1.35160156 -8.185 0.70320313 -7.25 0.03515625 C-4.33374471 -1.3065237 -3.05669616 -0.86406654 0 0 Z " fill="#1E8CC6" transform="translate(221,46)"/>
<path d="M0 0 C0.66 0.33 1.32 0.66 2 1 C1.401875 1.886875 0.80375 2.77375 0.1875 3.6875 C-2.76316332 8.15564731 -5.41319122 12.71697563 -7.9375 17.4375 C-9.5884478 20.49011883 -11.24736032 23.36750677 -13.1875 26.25 C-15.23886257 29.36241217 -16.541725 32.57622392 -18 36 C-18.47695312 36.60972656 -18.95390625 37.21945313 -19.4453125 37.84765625 C-21.28833092 40.39917169 -22.23077456 42.85727072 -23.3125 45.8125 C-23.7353125 46.946875 -24.158125 48.08125 -24.59375 49.25 C-24.81804687 49.85328125 -25.04234375 50.4565625 -25.2734375 51.078125 C-26.57052107 54.50912024 -27.94363167 57.90965199 -29.3125 61.3125 C-29.57909424 61.97677002 -29.84568848 62.64104004 -30.12036133 63.32543945 C-30.7461087 64.88394728 -31.37293066 66.4420236 -32 68 C-32.66 68 -33.32 68 -34 68 C-34.03738281 68.60585938 -34.07476562 69.21171875 -34.11328125 69.8359375 C-34.54933319 75.39346216 -35.58332957 80.29897213 -37.30078125 85.59375 C-38.30532985 89.05074408 -38.66856405 92.42049178 -39 96 C-39.66 96 -40.32 96 -41 96 C-41.06058594 97.0621875 -41.12117188 98.124375 -41.18359375 99.21875 C-42.00202111 113.15671621 -42.00202111 113.15671621 -43 120 C-45.28639008 117.52307741 -45.97637294 116.29533822 -46.25 112.875 C-46 110 -46 110 -45 108 C-44.84995027 106.6265365 -44.75161994 105.2471474 -44.68359375 103.8671875 C-44.64169922 103.06152344 -44.59980469 102.25585938 -44.55664062 101.42578125 C-44.51732422 100.58402344 -44.47800781 99.74226563 -44.4375 98.875 C-44.39431641 98.02550781 -44.35113281 97.17601562 -44.30664062 96.30078125 C-44.20045764 94.20071777 -44.09971503 92.10038052 -44 90 C-43.34 90 -42.68 90 -42 90 C-41.87625 88.989375 -41.7525 87.97875 -41.625 86.9375 C-41.02240519 83.14115267 -40.07269965 79.68811575 -39 76 C-38.62516009 74.58953191 -38.2542138 73.17802459 -37.88671875 71.765625 C-35.59903009 63.09032087 -33.01535858 55.05748621 -29 47 C-28.38900631 45.60714151 -27.78474438 44.21130921 -27.1875 42.8125 C-16.49458414 18.74261653 -16.49458414 18.74261653 -11 12 C-10.01 12 -9.02 12 -8 12 C-7.7525 11.0925 -7.505 10.185 -7.25 9.25 C-5.95193799 5.87503877 -4.78028159 4.25897879 -2 2 C-1.34 2 -0.68 2 0 2 C0 1.34 0 0.68 0 0 Z " fill="#0D3374" transform="translate(166,214)"/>
<path d="M0 0 C0.66 0 1.32 0 2 0 C2 1.65 2 3.3 2 5 C1.34 5 0.68 5 0 5 C0.04125 5.886875 0.0825 6.77375 0.125 7.6875 C0.00102754 10.97277013 -0.61387904 13.05449295 -2 16 C-1.34 16.33 -0.68 16.66 0 17 C-0.76150678 19.41996621 -1.5337301 21.83559016 -2.3125 24.25 C-2.63250977 25.27287109 -2.63250977 25.27287109 -2.95898438 26.31640625 C-4.16940606 30.03800129 -5.40403345 33.04623161 -8 36 C-7.34 36 -6.68 36 -6 36 C-7.875 41.875 -7.875 41.875 -9 43 C-9.144375 44.155 -9.28875 45.31 -9.4375 46.5 C-9.623125 47.655 -9.80875 48.81 -10 50 C-10.99 50.495 -10.99 50.495 -12 51 C-12.66 50.67 -13.32 50.34 -14 50 C-13.97679687 50.77085937 -13.95359375 51.54171875 -13.9296875 52.3359375 C-13.90261719 53.84027344 -13.90261719 53.84027344 -13.875 55.375 C-13.85179687 56.37273437 -13.82859375 57.37046875 -13.8046875 58.3984375 C-14 61 -14 61 -16 63 C-16.44905496 65.59833502 -16.44905496 65.59833502 -16.59765625 68.63671875 C-16.67693359 69.77173828 -16.75621094 70.90675781 -16.83789062 72.07617188 C-16.91201172 73.26791016 -16.98613281 74.45964844 -17.0625 75.6875 C-17.21798255 78.02487817 -17.37547893 80.3621234 -17.53515625 82.69921875 C-17.63389038 84.25902466 -17.63389038 84.25902466 -17.73461914 85.8503418 C-18.02087171 89.24771473 -18.51783647 92.62485531 -19 96 C-5.47 96 8.06 96 22 96 C22 95.67 22 95.34 22 95 C25.7499837 94.97094076 29.49993837 94.95318126 33.25 94.9375 C34.84521484 94.92493164 34.84521484 94.92493164 36.47265625 94.91210938 C37.49746094 94.90888672 38.52226563 94.90566406 39.578125 94.90234375 C40.52075195 94.89710693 41.46337891 94.89187012 42.43457031 94.88647461 C44.78123437 94.99031918 46.75644478 95.33293471 49 96 C49 96.66 49 97.32 49 98 C40.02079223 98.02312566 31.04159463 98.04091623 22.06236362 98.05181217 C17.89337172 98.05704051 13.72440013 98.06413726 9.55541992 98.07543945 C5.53542314 98.08627008 1.51544595 98.09227721 -2.50456429 98.09487724 C-4.04162975 98.09673118 -5.57869409 98.10035119 -7.11575127 98.10573006 C-9.26135487 98.11294284 -11.40687655 98.11399084 -13.55249023 98.11352539 C-14.77604721 98.115746 -15.99960419 98.11796661 -17.26023865 98.12025452 C-20 98 -20 98 -21 97 C-23.49632098 66.22568233 -13.84013284 27.68026568 0 0 Z " fill="#103875" transform="translate(66,239)"/>
<path d="M0 0 C2.77409209 2.63680895 4.97488488 5.24042802 7.03125 8.46484375 C7.58828613 9.33616943 8.14532227 10.20749512 8.71923828 11.10522461 C9.30688965 12.03987549 9.89454102 12.97452637 10.5 13.9375 C11.1172998 14.91533447 11.73459961 15.89316895 12.37060547 16.90063477 C17.99393621 25.87530901 23.3597476 34.97486617 28.47509766 44.24804688 C29.53970481 46.16931678 30.61584271 48.08422264 31.70068359 49.99414062 C33.43042841 53.04498347 35.12472187 56.11327946 36.8125 59.1875 C37.34697754 60.11941162 37.88145508 61.05132324 38.43212891 62.01147461 C41.86597839 68.39591229 42.57629255 72.89756925 41 80 C36.56316468 74.19441051 33.61850962 67.76417569 31.0625 60.9375 C29.39262624 56.6066892 27.20132525 53.03894564 24.46484375 49.30078125 C22.9469427 46.91666467 21.90226777 44.47428195 20.82788086 41.86645508 C19.1158696 38.00673048 16.85110337 34.4354822 14.69726562 30.81054688 C12 26.20167556 12 26.20167556 12 24 C11.34 24 10.68 24 10 24 C8.59765625 21.953125 8.59765625 21.953125 7.0625 19.25 C5.5815022 16.65920077 4.17198566 14.21758185 2.3203125 11.875 C0.46677812 9.24276183 0.78624139 7.13512632 1 4 C0.34 4 -0.32 4 -1 4 C-0.67 2.68 -0.34 1.36 0 0 Z " fill="#0F3D7C" transform="translate(315,144)"/>
<path d="M0 0 C0.99 0 1.98 0 3 0 C4.5703125 1.64453125 4.5703125 1.64453125 6.125 3.8125 C6.64320313 4.52019531 7.16140625 5.22789062 7.6953125 5.95703125 C9 8 9 8 10 11 C10.44988281 11.43183594 10.89976562 11.86367187 11.36328125 12.30859375 C13.60364536 14.62381489 14.76831685 17.17857967 16.1875 20.0625 C16.71730469 21.12597656 17.24710937 22.18945312 17.79296875 23.28515625 C19 26 19 26 19 28 C19.66 28.33 20.32 28.66 21 29 C22.03994567 31.30273685 22.97930677 33.57922989 23.875 35.9375 C24.41000658 37.3151623 24.94516302 38.69276641 25.48046875 40.0703125 C25.74005371 40.74481445 25.99963867 41.41931641 26.26708984 42.11425781 C27.20536667 44.52839846 28.19732341 46.91925466 29.1875 49.3125 C31.11661949 54.11511964 32.60140513 59.02015464 34 64 C34.33 64 34.66 64 35 64 C35.67806317 67.1851837 36.34035151 70.37345613 37 73.5625 C37.19078125 74.45775391 37.3815625 75.35300781 37.578125 76.27539062 C38.60729907 81.29261421 39.22479032 85.87899545 39 91 C37.68 90.34 36.36 89.68 35 89 C35 86.03 35 83.06 35 80 C34.34 80 33.68 80 33 80 C32.32438628 77.4604163 31.65934172 74.91881165 31 72.375 C30.80921875 71.66214844 30.6184375 70.94929688 30.421875 70.21484375 C29.34982713 66.04151456 28.78053186 62.34821249 29 58 C28.34 58 27.68 58 27 58 C25.39644899 54.49223216 24.77963136 51.85645121 25 48 C24.34 48 23.68 48 23 48 C22.56300781 46.94425781 22.56300781 46.94425781 22.1171875 45.8671875 C21.24574444 43.76805107 20.37040539 41.67052981 19.4921875 39.57421875 C18.48627511 37.16476892 17.49170641 34.7505558 16.5078125 32.33203125 C13.53418707 24.91673253 13.53418707 24.91673253 9.3125 18.1875 C6.51091264 14.32585255 5.27039315 10.55482421 4 6 C3.34 6 2.68 6 2 6 C1.34 4.02 0.68 2.04 0 0 Z " fill="#0B3575" transform="translate(273,224)"/>
<path d="M0 0 C5.18710762 2.67524054 9.07582093 6.6260062 13.25 10.625 C14.00780762 11.34558594 14.76561523 12.06617187 15.54638672 12.80859375 C22.69020429 19.61953428 29.76463304 26.4165422 36.1953125 33.9140625 C38.21651276 36.25025501 40.29378839 38.52964851 42.375 40.8125 C49.89258098 49.17659851 56.78017422 57.9275399 63.5 66.9375 C64.12414795 67.76693115 64.7482959 68.5963623 65.39135742 69.45092773 C65.97377197 70.23927002 66.55618652 71.0276123 67.15625 71.83984375 C67.68025391 72.54488037 68.20425781 73.24991699 68.74414062 73.97631836 C70.03421322 76.05513091 70.67408101 77.58164434 71 80 C70.505 81.485 70.505 81.485 70 83 C70.66 83 71.32 83 72 83 C71.505 84.98 71.505 84.98 71 87 C68 83.25 68 83.25 68 81 C67.34 81 66.68 81 66 81 C64.703125 79.09375 64.703125 79.09375 63.25 76.5 C60.82893926 72.28997813 58.20024133 68.52336776 55.1015625 64.7890625 C54 63 54 63 54 59 C53.34 59 52.68 59 52 59 C52 58.34 52 57.68 52 57 C51.34 57 50.68 57 50 57 C50 55.68 50 54.36 50 53 C49.34 53 48.68 53 48 53 C48 52.34 48 51.68 48 51 C47.34 51 46.68 51 46 51 C46 50.34 46 49.68 46 49 C45.34 49 44.68 49 44 49 C44 47.68 44 46.36 44 45 C41.525 45.495 41.525 45.495 39 46 C38.505 42.535 38.505 42.535 38 39 C37.34 39 36.68 39 36 39 C36 38.34 36 37.68 36 37 C35.34 37 34.68 37 34 37 C34 36.34 34 35.68 34 35 C32.68 35 31.36 35 30 35 C30 33.68 30 32.36 30 31 C29.34 31 28.68 31 28 31 C26.99472521 29.33650958 25.99592868 27.6691027 25 26 C23.38392273 24.20317724 21.71393477 22.45373278 20 20.75 C19.13375 19.87859375 18.2675 19.0071875 17.375 18.109375 C15.10818485 15.81742617 15.10818485 15.81742617 12 15 C12 14.34 12 13.68 12 13 C11.34 13 10.68 13 10 13 C10 12.34 10 11.68 10 11 C9.34 11 8.68 11 8 11 C8 10.34 8 9.68 8 9 C6.35 8.67 4.7 8.34 3 8 C2.67 6.35 2.34 4.7 2 3 C1.34 3 0.68 3 0 3 C0 2.01 0 1.02 0 0 Z " fill="#19619B" transform="translate(244,65)"/>
<path d="M0 0 C2.78211944 0.37596209 4.5879284 0.67318459 6.8125 2.4375 C8 4 8 4 8 6 C8.66 6 9.32 6 10 6 C11.30932617 7.40185547 11.30932617 7.40185547 12.79296875 9.3671875 C13.61015381 10.44178223 13.61015381 10.44178223 14.44384766 11.53808594 C15.30695557 12.6948584 15.30695557 12.6948584 16.1875 13.875 C16.77321777 14.65133789 17.35893555 15.42767578 17.96240234 16.22753906 C33 36.24151786 33 36.24151786 33 40 C33.66 40 34.32 40 35 40 C37.15739449 42.34499401 38.37469894 44.77198831 39.5625 47.6875 C40.61006978 51.07272892 40.61006978 51.07272892 43 52 C43.72693904 53.97888961 44.39816251 55.97954558 45 58 C44.01 57.34 43.02 56.68 42 56 C42 55.34 42 54.68 42 54 C40.68 54 39.36 54 38 54 C38 53.34 38 52.68 38 52 C37.34 52 36.68 52 36 52 C34.35 49.03 32.7 46.06 31 43 C30.34 43 29.68 43 29 43 C27.84375 41.3046875 27.84375 41.3046875 26.5 38.875 C19.27055075 26.44664898 10.19861689 13.19861689 0 3 C0 2.01 0 1.02 0 0 Z " fill="#0E3D7C" transform="translate(234,170)"/>
<path d="M0 0 C0.99 0 1.98 0 3 0 C3 1.65 3 3.3 3 5 C2.34 5 1.68 5 1 5 C1 6.32 1 7.64 1 9 C0.01 9.66 -0.98 10.32 -2 11 C-2.72382467 13.05925139 -2.72382467 13.05925139 -3 15 C-3.66 15 -4.32 15 -5 15 C-5.66 18.3 -6.32 21.6 -7 25 C-7.99 25.33 -8.98 25.66 -10 26 C-10.33 26.99 -10.66 27.98 -11 29 C-11.66 29 -12.32 29 -13 29 C-13.06058594 29.66386719 -13.12117188 30.32773438 -13.18359375 31.01171875 C-13.83921835 37.92099342 -14.37573502 43.0060233 -18 49 C-19.66114058 52.87053938 -20.97789799 56.80774245 -22.0625 60.875 C-23 64 -23 64 -25 66 C-28.44929199 53.83935742 -22.19844273 43.66023109 -17 33 C-16.49581543 31.95972656 -15.99163086 30.91945312 -15.47216797 29.84765625 C-10.55954742 19.76264984 -5.53198159 9.7612512 0 0 Z " fill="#134988" transform="translate(93,183)"/>
<path d="M0 0 C2.36381266 3.54571899 2.1465548 4.59505228 1.79296875 8.734375 C1.70080078 9.86617188 1.60863281 10.99796875 1.51367188 12.1640625 C1.40603516 13.34742188 1.29839844 14.53078125 1.1875 15.75 C1.09146484 16.91789062 0.99542969 18.08578125 0.89648438 19.2890625 C0.42212052 24.90502119 -0.20186611 30.41306276 -1 36 C12.53 36 26.06 36 40 36 C40 35.67 40 35.34 40 35 C43.7499837 34.97094076 47.49993837 34.95318126 51.25 34.9375 C52.84521484 34.92493164 52.84521484 34.92493164 54.47265625 34.91210938 C55.49746094 34.90888672 56.52226563 34.90566406 57.578125 34.90234375 C58.52075195 34.89710693 59.46337891 34.89187012 60.43457031 34.88647461 C62.78123437 34.99031918 64.75644478 35.33293471 67 36 C67 36.66 67 37.32 67 38 C58.02079223 38.02312566 49.04159463 38.04091623 40.06236362 38.05181217 C35.89337172 38.05704051 31.72440013 38.06413726 27.55541992 38.07543945 C23.53542314 38.08627008 19.51544595 38.09227721 15.49543571 38.09487724 C13.95837025 38.09673118 12.42130591 38.10035119 10.88424873 38.10573006 C8.73864513 38.11294284 6.59312345 38.11399084 4.44750977 38.11352539 C3.22395279 38.115746 2.00039581 38.11796661 0.73976135 38.12025452 C-2 38 -2 38 -3 37 C-3.8200413 24.43129001 -2.14721606 12.3592734 0 0 Z " fill="#092F6D" transform="translate(48,299)"/>
<path d="M0 0 C0.33 0 0.66 0 1 0 C1.495 3.96 1.495 3.96 2 8 C2.33 8 2.66 8 3 8 C3.02686553 9.97909398 3.04633375 11.95828971 3.0625 13.9375 C3.07410156 15.03964844 3.08570313 16.14179688 3.09765625 17.27734375 C3 20 3 20 2 21 C-0.11681317 21.0942174 -2.23680758 21.11742761 -4.35571289 21.11352539 C-5.01910172 21.11367142 -5.68249054 21.11381744 -6.36598206 21.1139679 C-8.56823956 21.11326881 -10.77041345 21.10547665 -12.97265625 21.09765625 C-14.49580336 21.09579206 -16.01895107 21.09436816 -17.542099 21.09336853 C-21.55837651 21.08954346 -25.57461808 21.07971328 -29.59088135 21.06866455 C-33.68623366 21.05845019 -37.78159176 21.05387086 -41.87695312 21.04882812 C-49.91798528 21.038091 -57.95898817 21.02101472 -66 21 C-65.505 19.515 -65.505 19.515 -65 18 C-56.82036512 17.97685633 -48.64074387 17.95907456 -40.46108437 17.94818783 C-36.66317211 17.94296344 -32.8652822 17.93587383 -29.06738281 17.92456055 C-25.40399327 17.91371592 -21.74062527 17.90771981 -18.07722092 17.90512276 C-16.67774491 17.90327136 -15.27827012 17.89965618 -13.87880325 17.89426994 C-11.92263178 17.88703874 -9.96643874 17.88659177 -8.01025391 17.88647461 C-6.33813339 17.88314369 -6.33813339 17.88314369 -4.63223267 17.87974548 C-2 18 -2 18 0 19 C0 12.73 0 6.46 0 0 Z " fill="#021A55" transform="translate(386,316)"/>
<path d="M0 0 C0.66 0.33 1.32 0.66 2 1 C1.401875 1.886875 0.80375 2.77375 0.1875 3.6875 C-2.76316332 8.15564731 -5.41319122 12.71697563 -7.9375 17.4375 C-9.5884478 20.49011883 -11.24736032 23.36750677 -13.1875 26.25 C-15.13302115 29.02535837 -15.13302115 29.02535837 -16.5 32.5 C-18.01277716 36.02981338 -19.67416266 38.94733849 -22 42 C-23.485 42.495 -23.485 42.495 -25 43 C-26.20882096 45.00016466 -26.20882096 45.00016466 -27 47 C-28 44 -28 44 -26.48828125 40.48828125 C-25.77307351 39.09116223 -25.04733774 37.6993948 -24.3125 36.3125 C-23.95994141 35.62994141 -23.60738281 34.94738281 -23.24414062 34.24414062 C-22.5286154 32.85887333 -21.80925569 31.47558029 -21.08618164 30.09423828 C-19.99718336 27.99456932 -18.94047542 25.88119544 -17.890625 23.76171875 C-16.49020424 20.95294185 -15.0556453 18.19156842 -13.4375 15.5 C-12.84775391 14.49453125 -12.84775391 14.49453125 -12.24609375 13.46875 C-11.83488281 12.9840625 -11.42367187 12.499375 -11 12 C-10.01 12 -9.02 12 -8 12 C-7.7525 11.0925 -7.505 10.185 -7.25 9.25 C-5.95193799 5.87503877 -4.78028159 4.25897879 -2 2 C-1.34 2 -0.68 2 0 2 C0 1.34 0 0.68 0 0 Z " fill="#0F4282" transform="translate(166,214)"/>
<path d="M0 0 C4.83135256 -0.33707111 6.96425154 0.46592539 11 3 C12.4694991 3.50804244 13.95002294 3.98478959 15.4375 4.4375 C19.47500756 5.70508958 22.51958273 7.5718019 26 10 C28.22602615 10.76939681 28.22602615 10.76939681 30 11 C30 11.66 30 12.32 30 13 C30.763125 13.12375 31.52625 13.2475 32.3125 13.375 C35 14 35 14 38 16 C37.34 17.32 36.68 18.64 36 20 C31.14772146 18.17302873 26.53851743 15.87820128 21.875 13.625 C15.04002474 10.34853077 8.22846209 7.32285411 1 5 C1 4.34 1 3.68 1 3 C0.34 2.67 -0.32 2.34 -1 2 C-0.67 1.34 -0.34 0.68 0 0 Z " fill="#0A2C67" transform="translate(236,272)"/>
<path d="M0 0 C1.32 0 2.64 0 4 0 C4 0.66 4 1.32 4 2 C4.66 2 5.32 2 6 2 C6 2.66 6 3.32 6 4 C6.721875 4.185625 7.44375 4.37125 8.1875 4.5625 C11.55512732 6.28373174 12.69829334 8.09085175 14.73046875 11.1875 C16.11952132 13.28217804 16.11952132 13.28217804 18.8125 15.8125 C21 18 21 18 21 20 C19.68 20.33 18.36 20.66 17 21 C12.05 15.72 7.1 10.44 2 5 C-2.05417827 7.02708913 -4.34418016 9.29682263 -7.25 12.625 C-7.70890625 13.140625 -8.1678125 13.65625 -8.640625 14.1875 C-9.76592296 15.4534602 -10.88372177 16.72607942 -12 18 C-12.33 17.34 -12.66 16.68 -13 16 C-13.99 15.67 -14.98 15.34 -16 15 C-14.25 12.5 -14.25 12.5 -12 10 C-10.68 10 -9.36 10 -8 10 C-8 8.68 -8 7.36 -8 6 C-6.68 6 -5.36 6 -4 6 C-4 5.34 -4 4.68 -4 4 C-3.34 4 -2.68 4 -2 4 C-2 3.34 -2 2.68 -2 2 C-1.34 2 -0.68 2 0 2 C0 1.34 0 0.68 0 0 Z " fill="#16538F" transform="translate(216,150)"/>
<path d="M0 0 C1.32 0 2.64 0 4 0 C4 0.66 4 1.32 4 2 C4.66 2 5.32 2 6 2 C6 2.66 6 3.32 6 4 C6.66 4 7.32 4 8 4 C8 4.66 8 5.32 8 6 C8.59780273 6.11102051 9.19560547 6.22204102 9.81152344 6.33642578 C13.41632598 7.42944824 15.67739436 10.24700332 18.25 12.875 C18.80429687 13.41769531 19.35859375 13.96039063 19.9296875 14.51953125 C24 18.61991995 24 18.61991995 24 22 C24.66 22 25.32 22 26 22 C26 23.32 26 24.64 26 26 C27.32 26 28.64 26 30 26 C30 26.66 30 27.32 30 28 C30.66 28 31.32 28 32 28 C32 28.66 32 29.32 32 30 C32.66 30 33.32 30 34 30 C34.66 32.64 35.32 35.28 36 38 C34.68 37.67 33.36 37.34 32 37 C31.34 34.69 30.68 32.38 30 30 C28.68 30 27.36 30 26 30 C25.34 30 24.68 30 24 30 C23.7525 28.9275 23.505 27.855 23.25 26.75 C21.98470426 22.95411278 20.8930687 21.60376183 18 19 C18 18.34 18 17.68 18 17 C16.68 17.33 15.36 17.66 14 18 C14 17.34 14 16.68 14 16 C13.34 16 12.68 16 12 16 C11.71125 15.195625 11.4225 14.39125 11.125 13.5625 C10.26737432 10.8673532 10.26737432 10.8673532 8 10 C7.67 9.01 7.34 8.02 7 7 C6.01 6.67 5.02 6.34 4 6 C4 5.34 4 4.68 4 4 C3.38125 4.185625 2.7625 4.37125 2.125 4.5625 C0 5 0 5 -2 4 C-2 3.34 -2 2.68 -2 2 C-1.34 2 -0.68 2 0 2 C0 1.34 0 0.68 0 0 Z " fill="#1A77B2" transform="translate(248,74)"/>
<path d="M0 0 C1.84765625 0.33984375 1.84765625 0.33984375 4.0625 0.9375 C4.79597656 1.13214844 5.52945313 1.32679688 6.28515625 1.52734375 C6.85105469 1.68332031 7.41695312 1.83929688 8 2 C8 2.33 8 2.66 8 3 C6.35 3 4.7 3 3 3 C3 3.66 3 4.32 3 5 C2.41508789 5.20157715 1.83017578 5.4031543 1.22753906 5.61083984 C-1.43262838 6.52939429 -4.09131912 7.45215209 -6.75 8.375 C-7.67039063 8.69210937 -8.59078125 9.00921875 -9.5390625 9.3359375 C-10.42851562 9.6453125 -11.31796875 9.9546875 -12.234375 10.2734375 C-13.05131836 10.55622559 -13.86826172 10.83901367 -14.70996094 11.13037109 C-17.00131081 11.95073999 -17.00131081 11.95073999 -19.07519531 13.07275391 C-21.93353622 14.44971722 -24.87267832 14.60197724 -28 15 C-28.99 15.33 -29.98 15.66 -31 16 C-30.67 14.68 -30.34 13.36 -30 12 C-29.01 12 -28.02 12 -27 12 C-27 11.34 -27 10.68 -27 10 C-25.783125 9.566875 -24.56625 9.13375 -23.3125 8.6875 C-20.7206567 7.72924807 -18.67146594 6.79371117 -16.3125 5.3125 C-13.65298701 3.80304668 -12.00917678 3.74207056 -9 4 C-9 3.34 -9 2.68 -9 2 C-6.94921875 1.77213542 -4.8984375 1.54427083 -2.84765625 1.31640625 C-0.98859771 1.18113386 -0.98859771 1.18113386 0 0 Z " fill="#0B2F6A" transform="translate(201,270)"/>
<path d="M0 0 C-0.33 1.65 -0.66 3.3 -1 5 C-2.32 5 -3.64 5 -5 5 C-5 5.66 -5 6.32 -5 7 C-5.66 7 -6.32 7 -7 7 C-6.67 7.99 -6.34 8.98 -6 10 C-7.65 10.66 -9.3 11.32 -11 12 C-11 14.31 -11 16.62 -11 19 C-11.928125 19.226875 -12.85625 19.45375 -13.8125 19.6875 C-17.17172289 20.68538361 -17.17172289 20.68538361 -18.4375 23.5625 C-18.953125 24.366875 -19.46875 25.17125 -20 26 C-23.5625 26.75 -23.5625 26.75 -27 27 C-27.66 27.33 -28.32 27.66 -29 28 C-27.42491141 24.33620697 -25.15806427 21.70148695 -22.5 18.75 C-21.7059375 17.85796875 -20.911875 16.9659375 -20.09375 16.046875 C-18 14 -18 14 -16 14 C-16 13.34 -16 12.68 -16 12 C-14.42578125 10.44921875 -14.42578125 10.44921875 -12.3125 8.6875 C-9.80571692 6.57046411 -7.42357635 4.46319546 -5.1875 2.0625 C-3 0 -3 0 0 0 Z " fill="#1C79AF" transform="translate(187,69)"/>
<path d="M0 0 C4.72381432 4.39026254 8.44083835 9.37429539 12.25 14.5625 C13.20519531 15.83770508 13.20519531 15.83770508 14.1796875 17.13867188 C15.08847656 18.37133789 15.08847656 18.37133789 16.015625 19.62890625 C16.56508789 20.37213135 17.11455078 21.11535645 17.68066406 21.88110352 C19.00271175 24.00435517 19.67602026 25.52886662 20 28 C19.67 28.99 19.34 29.98 19 31 C19.66 31 20.32 31 21 31 C20.67 32.32 20.34 33.64 20 35 C17 31.25 17 31.25 17 29 C16.34 29 15.68 29 15 29 C13.703125 27.09375 13.703125 27.09375 12.25 24.5 C9.82893926 20.28997813 7.20024133 16.52336776 4.1015625 12.7890625 C3 11 3 11 3 7 C2.34 7 1.68 7 1 7 C1 6.34 1 5.68 1 5 C0.34 5 -0.32 5 -1 5 C-0.67 3.35 -0.34 1.7 0 0 Z " fill="#134A86" transform="translate(295,117)"/>
<path d="M0 0 C0.66 0 1.32 0 2 0 C2.99 3.3 3.98 6.6 5 10 C5.66 10 6.32 10 7 10 C7.66 11.98 8.32 13.96 9 16 C9.33 16 9.66 16 10 16 C10.67806317 19.1851837 11.34035151 22.37345613 12 25.5625 C12.19078125 26.45775391 12.3815625 27.35300781 12.578125 28.27539062 C13.60729907 33.29261421 14.22479032 37.87899545 14 43 C12.68 42.34 11.36 41.68 10 41 C10 38.03 10 35.06 10 32 C9.34 32 8.68 32 8 32 C7.32438628 29.4604163 6.65934172 26.91881165 6 24.375 C5.80921875 23.66214844 5.6184375 22.94929688 5.421875 22.21484375 C4.34982713 18.04151456 3.78053186 14.34821249 4 10 C3.34 10 2.68 10 2 10 C0.39644899 6.49223216 -0.22036864 3.85645121 0 0 Z " fill="#082D6D" transform="translate(298,272)"/>
<path d="M0 0 C2.78211944 0.37596209 4.5879284 0.67318459 6.8125 2.4375 C8 4 8 4 8 6 C8.66 6 9.32 6 10 6 C11.40454102 7.51293945 11.40454102 7.51293945 13.00390625 9.61328125 C13.57947266 10.36673828 14.15503906 11.12019531 14.74804688 11.89648438 C15.34681641 12.69376953 15.94558594 13.49105469 16.5625 14.3125 C17.16513672 15.09818359 17.76777344 15.88386719 18.38867188 16.69335938 C22.86588368 22.59765103 22.86588368 22.59765103 24 26 C22.35 26.33 20.7 26.66 19 27 C18.6376123 26.52167725 18.27522461 26.04335449 17.90185547 25.55053711 C16.22847896 23.34448062 14.55176211 21.14098413 12.875 18.9375 C12.02035156 17.80924805 12.02035156 17.80924805 11.1484375 16.65820312 C7.94120106 12.4487053 4.66837656 8.39400928 1.07080078 4.51000977 C0 3 0 3 0 0 Z " fill="#114584" transform="translate(234,170)"/>
<path d="M0 0 C3.59649599 3.33433241 5.51441888 7.25001465 7.75 11.5625 C8.17410156 12.32369141 8.59820312 13.08488281 9.03515625 13.86914062 C12.14816946 19.89743493 12.31300103 24.38188274 11 31 C5.12036509 23.30651033 -2.2798914 10.9831529 -1 1 C-0.67 0.67 -0.34 0.34 0 0 Z " fill="#0B3B7D" transform="translate(345,193)"/>
<path d="M0 0 C1.65 0 3.3 0 5 0 C3.875 2.875 3.875 2.875 2 6 C0.0187415 6.72045764 -1.98504093 7.38001259 -4 8 C-7.0685065 10.2346024 -9.81051691 12.80739491 -12.48828125 15.4921875 C-14.11429847 17.11400312 -15.78287405 18.66242103 -17.5 20.1875 C-18.0878125 20.71730469 -18.675625 21.24710938 -19.28125 21.79296875 C-21 23 -21 23 -24 23 C-24 22.01 -24 21.02 -24 20 C-23.34 20 -22.68 20 -22 20 C-22 19.34 -22 18.68 -22 18 C-20.68 18 -19.36 18 -18 18 C-18.0825 17.0925 -18.165 16.185 -18.25 15.25 C-18 12 -18 12 -16.375 9.625 C-13.3962104 7.5868808 -11.53677664 7.67847485 -8 8 C-8 7.34 -8 6.68 -8 6 C-2.58823529 2 -2.58823529 2 0 2 C0 1.34 0 0.68 0 0 Z " fill="#1C8AC8" transform="translate(204,56)"/>
<path d="M0 0 C0.66 0 1.32 0 2 0 C1.49396008 2.16874252 1.00016187 3.99967627 0 6 C-0.66 6 -1.32 6 -2 6 C-2 6.66 -2 7.32 -2 8 C-2.66 8 -3.32 8 -4 8 C-4.33 9.65 -4.66 11.3 -5 13 C-5.99 13.33 -6.98 13.66 -8 14 C-8.67156616 15.93618425 -8.67156616 15.93618425 -9 18 C-9.33 18.66 -9.66 19.32 -10 20 C-9.67 20.33 -9.34 20.66 -9 21 C-9.66 22.32 -10.32 23.64 -11 25 C-11.99 24.67 -12.98 24.34 -14 24 C-14.144375 24.61875 -14.28875 25.2375 -14.4375 25.875 C-15 28 -15 28 -16 30 C-16.66 30 -17.32 30 -18 30 C-18 30.66 -18 31.32 -18 32 C-19.50721474 33.2123249 -21.01526829 34.423656 -22.53125 35.625 C-24.51540131 37.48250335 -25.26181526 39.4163534 -26 42 C-26.66 42 -27.32 42 -28 42 C-26.69460548 36.89709416 -24.66591273 34.66591273 -21 31 C-19.78166115 28.70722059 -18.90971444 26.44186508 -18 24 C-17.34 24 -16.68 24 -16 24 C-15.731875 23.195625 -15.46375 22.39125 -15.1875 21.5625 C-14.795625 20.716875 -14.40375 19.87125 -14 19 C-13.01 18.67 -12.02 18.34 -11 18 C-10.4122403 16.11613497 -10.4122403 16.11613497 -10 14 C-8.53842536 11.45732411 -6.78255654 9.12382277 -5.0625 6.75 C-4.60681641 6.1003125 -4.15113281 5.450625 -3.68164062 4.78125 C-2.50907797 3.14687276 -1.25988848 1.56804756 0 0 Z " fill="#124D8D" transform="translate(184,184)"/>
<path d="M0 0 C0.99 0 1.98 0 3 0 C3 1.65 3 3.3 3 5 C2.34 5 1.68 5 1 5 C1 6.32 1 7.64 1 9 C0.01 9.66 -0.98 10.32 -2 11 C-2.72382467 13.05925139 -2.72382467 13.05925139 -3 15 C-3.66 15 -4.32 15 -5 15 C-5.66 18.3 -6.32 21.6 -7 25 C-7.99 25.33 -8.98 25.66 -10 26 C-10.33 26.99 -10.66 27.98 -11 29 C-11.66 29 -12.32 29 -13 29 C-13.495 31.475 -13.495 31.475 -14 34 C-14.66 34 -15.32 34 -16 34 C-15.41524194 30.48059408 -14.49991773 27.63232692 -12.890625 24.453125 C-12.46523437 23.6075 -12.03984375 22.761875 -11.6015625 21.890625 C-10.93253906 20.58351562 -10.93253906 20.58351562 -10.25 19.25 C-9.81945312 18.3940625 -9.38890625 17.538125 -8.9453125 16.65625 C-6.09679576 11.02744446 -3.10424615 5.49161483 0 0 Z " fill="#16548D" transform="translate(93,183)"/>
<path d="M0 0 C0 0.66 0 1.32 0 2 C-0.969375 2.28875 -1.93875 2.5775 -2.9375 2.875 C-6.10664203 3.64214682 -6.10664203 3.64214682 -7 6 C-7.66 6 -8.32 6 -9 6 C-9 6.66 -9 7.32 -9 8 C-12.08809695 9.76462683 -13.23312136 10 -17 10 C-17 10.66 -17 11.32 -17 12 C-22.41176471 16 -22.41176471 16 -25 16 C-25 16.66 -25 17.32 -25 18 C-26.65 18 -28.3 18 -30 18 C-25.73517767 13.39779822 -20.91686403 9.87560573 -15.8125 6.25 C-14.99330078 5.66089844 -14.17410156 5.07179688 -13.33007812 4.46484375 C-5.33130008 -1.26267633 -5.33130008 -1.26267633 0 0 Z " fill="#2180B9" transform="translate(221,46)"/>
<path d="M0 0 C0.66 0 1.32 0 2 0 C2 3.3 2 6.6 2 10 C1.01 10.495 1.01 10.495 0 11 C0 10.01 0 9.02 0 8 C-0.66 8 -1.32 8 -2 8 C-2 8.66 -2 9.32 -2 10 C-5.72965139 12.03435531 -7.66905042 13 -12 13 C-12.99 13.495 -12.99 13.495 -14 14 C-12.60667426 10.63279613 -11.0210714 9.0140476 -8 7 C-8 7.99 -8 8.98 -8 10 C-7.34 10 -6.68 10 -6 10 C-6 8.68 -6 7.36 -6 6 C-4.68 6 -3.36 6 -2 6 C-2 4.68 -2 3.36 -2 2 C-1.34 2 -0.68 2 0 2 C0 1.34 0 0.68 0 0 Z " fill="#1B83C1" transform="translate(158,98)"/>
<path d="M0 0 C0.66 0.33 1.32 0.66 2 1 C0.3188669 6.21046842 -2.81570611 10.38408131 -5.9375 14.8125 C-6.47568359 15.60076172 -7.01386719 16.38902344 -7.56835938 17.20117188 C-8.35243164 18.31782227 -8.35243164 18.31782227 -9.15234375 19.45703125 C-9.62663818 20.13741455 -10.10093262 20.81779785 -10.58959961 21.51879883 C-11.05503174 22.00759521 -11.52046387 22.4963916 -12 23 C-12.99 23 -13.98 23 -15 23 C-15.33 23.66 -15.66 24.32 -16 25 C-16 24.01 -16 23.02 -16 22 C-15.34 22 -14.68 22 -14 22 C-13.731875 21.071875 -13.46375 20.14375 -13.1875 19.1875 C-12.053317 16.14311405 -11.30315842 15.10288378 -9 13 C-8.67 12.01 -8.34 11.02 -8 10 C-7.34 10 -6.68 10 -6 10 C-6 9.34 -6 8.68 -6 8 C-5.34 8 -4.68 8 -4 8 C-3.34 6.02 -2.68 4.04 -2 2 C-1.34 2 -0.68 2 0 2 C0 1.34 0 0.68 0 0 Z " fill="#164280" transform="translate(188,182)"/>
<path d="M0 0 C3.70465555 1.65640849 6.76486535 3.94056118 10 6.375 C11.03125 7.14585938 12.0625 7.91671875 13.125 8.7109375 C15.60507741 10.68556435 17.82007686 12.70479246 20 15 C17.03 14.505 17.03 14.505 14 14 C14 13.34 14 12.68 14 12 C12.02 11.34 10.04 10.68 8 10 C8 9.34 8 8.68 8 8 C7.34 8 6.68 8 6 8 C6 7.34 6 6.68 6 6 C4.02 5.34 2.04 4.68 0 4 C0 2.68 0 1.36 0 0 Z " fill="#1C6BA6" transform="translate(222,48)"/>
<path d="M0 0 C0.66 0 1.32 0 2 0 C2 0.66 2 1.32 2 2 C4.31 2.33 6.62 2.66 9 3 C9.33 4.65 9.66 6.3 10 8 C10.66 8 11.32 8 12 8 C12.66 9.98 13.32 11.96 14 14 C12.68 13.67 11.36 13.34 10 13 C10 12.34 10 11.68 10 11 C8.68 11 7.36 11 6 11 C6 8.69 6 6.38 6 4 C5.01 4.33 4.02 4.66 3 5 C2.01 4.67 1.02 4.34 0 4 C0 2.68 0 1.36 0 0 Z " fill="#1D7EB9" transform="translate(234,60)"/>
<path d="M0 0 C3.56992694 2.03542904 6.70309459 4.25093247 9.8125 6.9375 C10.60269531 7.60652344 11.39289063 8.27554688 12.20703125 8.96484375 C14 11 14 11 14 15 C13.34 15 12.68 15 12 15 C12 14.34 12 13.68 12 13 C11.34 13 10.68 13 10 13 C10 12.34 10 11.68 10 11 C9.34 11 8.68 11 8 11 C8 10.34 8 9.68 8 9 C6.35 8.67 4.7 8.34 3 8 C2.67 6.35 2.34 4.7 2 3 C1.34 3 0.68 3 0 3 C0 2.01 0 1.02 0 0 Z " fill="#1B68A1" transform="translate(244,65)"/>
<path d="M0 0 C1.32 0.33 2.64 0.66 4 1 C4 2.98 4 4.96 4 7 C4.66 7 5.32 7 6 7 C6 8.32 6 9.64 6 11 C6.66 11 7.32 11 8 11 C8 14.3 8 17.6 8 21 C4.43773246 17.43773246 3.60867713 14.68621237 2.875 9.8125 C2.70742188 8.72582031 2.53984375 7.63914063 2.3671875 6.51953125 C2.24601562 5.68808594 2.12484375 4.85664063 2 4 C1.34 4 0.68 4 0 4 C0 2.68 0 1.36 0 0 Z " fill="#0B3979" transform="translate(364,245)"/>
<path d="M0 0 C3.04332765 1.3584202 5.12309151 2.88463024 7.453125 5.2578125 C8.071875 5.88300781 8.690625 6.50820312 9.328125 7.15234375 C9.96234375 7.80332031 10.5965625 8.45429687 11.25 9.125 C11.8996875 9.78371094 12.549375 10.44242188 13.21875 11.12109375 C14.81711727 12.74296643 16.41061897 14.3693281 18 16 C17.34 16.66 16.68 17.32 16 18 C13.32529045 15.38308836 10.66165519 12.75518292 8 10.125 C7.236875 9.37863281 6.47375 8.63226563 5.6875 7.86328125 C4.965625 7.14785156 4.24375 6.43242188 3.5 5.6953125 C2.8296875 5.03547363 2.159375 4.37563477 1.46875 3.69580078 C0 2 0 2 0 0 Z " fill="#124B80" transform="translate(257,77)"/>
<path d="M0 0 C4.32111299 3.53545608 5.06994182 8.72967032 6 14 C4.1875 13.875 4.1875 13.875 2 13 C-0.64457084 8.93869479 -1.44821733 5.81833634 -1 1 C-0.67 0.67 -0.34 0.34 0 0 Z " fill="#0B3574" transform="translate(345,193)"/>
<path d="M0 0 C0.66 0.33 1.32 0.66 2 1 C2 1.99 2 2.98 2 4 C1.34 4 0.68 4 0 4 C0 5.32 0 6.64 0 8 C-0.66 8 -1.32 8 -2 8 C-2 8.66 -2 9.32 -2 10 C-2.66 10 -3.32 10 -4 10 C-4 11.32 -4 12.64 -4 14 C-4.99 14.33 -5.98 14.66 -7 15 C-7 10.37410361 -6.016761 9.02514149 -3.5 5.25 C-2.8503125 4.26515625 -2.200625 3.2803125 -1.53125 2.265625 C-1.0259375 1.51796875 -0.520625 0.7703125 0 0 Z " fill="#1B5A95" transform="translate(110,156)"/>
<path d="M0 0 C2.85471337 2.39732836 3.63112402 4.37764742 4.375 8 C4.66503906 9.299375 4.66503906 9.299375 4.9609375 10.625 C5 13 5 13 3.5390625 14.8125 C3.03117187 15.204375 2.52328125 15.59625 2 16 C0 14 0 14 -0.1953125 10.7421875 C-0.17210937 9.46601563 -0.14890625 8.18984375 -0.125 6.875 C-0.10695313 5.59367187 -0.08890625 4.31234375 -0.0703125 2.9921875 C-0.04710937 2.00476563 -0.02390625 1.01734375 0 0 Z " fill="#05205D" transform="translate(380,283)"/>
<path d="M0 0 C2.73965194 5.29666043 3.281301 9.09267905 3 15 C2.34 15.66 1.68 16.32 1 17 C0 16 0 16 -0.09765625 14.15234375 C-0.06510417 12.1015625 -0.03255208 10.05078125 0 8 C-0.66 8 -1.32 8 -2 8 C-2 6.68 -2 5.36 -2 4 C-1.34 4 -0.68 4 0 4 C0 2.68 0 1.36 0 0 Z " fill="#072560" transform="translate(376,264)"/>
<path d="M0 0 C0.66 0.33 1.32 0.66 2 1 C0.35 5.95 -1.3 10.9 -3 16 C-3.33 16 -3.66 16 -4 16 C-4 14.02 -4 12.04 -4 10 C-4.66 10 -5.32 10 -6 10 C-6 9.01 -6 8.02 -6 7 C-5.01 7 -4.02 7 -3 7 C-2.87625 6.030625 -2.7525 5.06125 -2.625 4.0625 C-2.41875 3.051875 -2.2125 2.04125 -2 1 C-1.34 0.67 -0.68 0.34 0 0 Z " fill="#114284" transform="translate(64,255)"/>
<path d="M0 0 C1.32 0 2.64 0 4 0 C4 0.66 4 1.32 4 2 C4.66 2 5.32 2 6 2 C6 2.66 6 3.32 6 4 C6.66 4 7.32 4 8 4 C8 4.66 8 5.32 8 6 C8.66 6 9.32 6 10 6 C10 7.32 10 8.64 10 10 C9.34 10 8.68 10 8 10 C7.67 9.01 7.34 8.02 7 7 C6.01 6.67 5.02 6.34 4 6 C4 5.34 4 4.68 4 4 C3.38125 4.185625 2.7625 4.37125 2.125 4.5625 C0 5 0 5 -2 4 C-2 3.34 -2 2.68 -2 2 C-1.34 2 -0.68 2 0 2 C0 1.34 0 0.68 0 0 Z " fill="#1C83C2" transform="translate(248,74)"/>
<path d="M0 0 C0.33 0 0.66 0 1 0 C1 2.31 1 4.62 1 7 C0.34 7 -0.32 7 -1 7 C-1.66 10.3 -2.32 13.6 -3 17 C-3.66 17 -4.32 17 -5 17 C-5.33 17.66 -5.66 18.32 -6 19 C-5.59524765 11.84937514 -3.17476348 6.37295696 0 0 Z " fill="#0F4084" transform="translate(137,261)"/>
<path d="M0 0 C1.65 0 3.3 0 5 0 C4 2.875 4 2.875 2 6 C-0.68906013 7.14563509 -3.08196704 7.52163394 -6 8 C-5.66015625 6.078125 -5.66015625 6.078125 -5 4 C-2.4375 2.75 -2.4375 2.75 0 2 C0 1.34 0 0.68 0 0 Z " fill="#1D90CD" transform="translate(204,56)"/>
<path d="M0 0 C3.63559661 3.43361902 6.36113346 6.7973607 9 11 C8.01 11.495 8.01 11.495 7 12 C6.34 11.67 5.68 11.34 5 11 C5 10.34 5 9.68 5 9 C4.34 9 3.68 9 3 9 C3 8.34 3 7.68 3 7 C2.34 7 1.68 7 1 7 C1 6.34 1 5.68 1 5 C0.34 5 -0.32 5 -1 5 C-0.67 3.35 -0.34 1.7 0 0 Z " fill="#15487F" transform="translate(295,117)"/>
<path d="M0 0 C2.15502531 3.23253796 2.46856135 4.25150923 2 8 C0.5 9.8125 0.5 9.8125 -1 11 C-4 5.375 -4 5.375 -4 2 C-2.68 2 -1.36 2 0 2 C0 1.34 0 0.68 0 0 Z " fill="#0B3575" transform="translate(364,232)"/>
<path d="M0 0 C3 0 3 0 5 1 C5.1875 3.875 5.1875 3.875 5 7 C4.01 7.66 3.02 8.32 2 9 C0 8 0 8 -2 5 C-1.48275862 1.48275862 -1.48275862 1.48275862 0 0 Z " fill="#1A7BBA" transform="translate(138,118)"/>
<path d="M0 0 C0.66 0 1.32 0 2 0 C2 0.66 2 1.32 2 2 C3.32 2 4.64 2 6 2 C6 3.98 6 5.96 6 8 C6.66 8 7.32 8 8 8 C8 8.66 8 9.32 8 10 C8.66 10 9.32 10 10 10 C9.67 11.32 9.34 12.64 9 14 C7.67925885 12.42353449 6.36868776 10.83854469 5.0625 9.25 C4.33160156 8.36828125 3.60070312 7.4865625 2.84765625 6.578125 C1.16962815 4.23669045 0.41264834 2.80338873 0 0 Z " fill="#115795" transform="translate(298,126)"/>
<path d="M0 0 C0.99 0.33 1.98 0.66 3 1 C2.45730469 1.25652344 1.91460937 1.51304687 1.35546875 1.77734375 C-3.09539938 4.15915967 -5.41325236 5.90519267 -7 10.8125 C-7.36243067 12.2010625 -7.70620902 13.5953119 -8 15 C-10 13 -10 13 -10.625 10.25 C-9.76728002 5.78985609 -7.57735959 4.67916488 -3.9453125 2.19921875 C-2 1 -2 1 0 0 Z " fill="#01133E" transform="translate(135,311)"/>
<path d="M0 0 C0.99 0.33 1.98 0.66 3 1 C3 1.66 3 2.32 3 3 C-2.41176471 7 -2.41176471 7 -5 7 C-5 7.66 -5 8.32 -5 9 C-6.65 9 -8.3 9 -10 9 C-3.73362445 2.55458515 -3.73362445 2.55458515 0 0 Z " fill="#1C74AA" transform="translate(201,55)"/>
<path d="M0 0 C0.33 0 0.66 0 1 0 C1.33 4.62 1.66 9.24 2 14 C1.01 13.67 0.02 13.34 -1 13 C-1.71247732 11.3523962 -2.37400383 9.68236471 -3 8 C-3.95824253 6.63634717 -4.94721175 5.29205831 -6 4 C-3.525 4.99 -3.525 4.99 -1 6 C-0.67 4.02 -0.34 2.04 0 0 Z " fill="#02174B" transform="translate(308,313)"/>
<path d="M0 0 C0.99 0 1.98 0 3 0 C3 0.66 3 1.32 3 2 C3.66 2 4.32 2 5 2 C5 2.66 5 3.32 5 4 C5.66 4 6.32 4 7 4 C7.66 6.64 8.32 9.28 9 12 C7.68 11.67 6.36 11.34 5 11 C4.34 8.69 3.68 6.38 3 4 C2.34 4 1.68 4 1 4 C0.67 2.68 0.34 1.36 0 0 Z " fill="#1773B1" transform="translate(275,100)"/>
<path d="M0 0 C0.66 0.33 1.32 0.66 2 1 C2.33 0.67 2.66 0.34 3 0 C3.66 0 4.32 0 5 0 C4.67 1.65 4.34 3.3 4 5 C2.329375 5.2165625 2.329375 5.2165625 0.625 5.4375 C-2.82142047 5.78372035 -2.82142047 5.78372035 -5 7 C-3.70700306 4.11562221 -2.34058637 2.12780579 0 0 Z " fill="#1E82BE" transform="translate(163,90)"/>
<path d="M0 0 C0.66 0.33 1.32 0.66 2 1 C1.34 3.97 0.68 6.94 0 10 C-1.65 10 -3.3 10 -5 10 C-3.84414715 6.08788267 -2.64465038 3.1254959 0 0 Z " fill="#1A5792" transform="translate(100,172)"/>
<path d="M0 0 C0.66 0 1.32 0 2 0 C1.67 4.62 1.34 9.24 1 14 C-2.16865168 9.7751311 -2.5180479 8.9732598 -2 4 C-1 1.625 -1 1.625 0 0 Z " fill="#0C2F6D" transform="translate(122,320)"/>
<path d="M0 0 C0.66 0 1.32 0 2 0 C0.70677932 5.7607103 -1.37988643 9.33195882 -5 14 C-5.33 12.68 -5.66 11.36 -6 10 C-5.34 10 -4.68 10 -4 10 C-3.896875 9.46375 -3.79375 8.9275 -3.6875 8.375 C-2.81907303 5.37497956 -1.44379704 2.7620465 0 0 Z " fill="#0F3674" transform="translate(150,240)"/>
<path d="M0 0 C0.33 0.99 0.66 1.98 1 3 C1.66 3 2.32 3 3 3 C3 3.66 3 4.32 3 5 C3.99 4.67 4.98 4.34 6 4 C6 7 6 7 5 9 C5.66 9 6.32 9 7 9 C6.67 10.32 6.34 11.64 6 13 C4.80008401 11.4050992 3.61538682 9.79873853 2.4375 8.1875 C1.44556641 6.84751953 1.44556641 6.84751953 0.43359375 5.48046875 C-0.03949219 4.66191406 -0.51257813 3.84335938 -1 3 C-0.67 2.01 -0.34 1.02 0 0 Z " fill="#0D4A8B" transform="translate(317,151)"/>
<path d="M0 0 C-0.61609051 4.00458831 -2.55060653 6.83019669 -5 10 C-5.99 10 -6.98 10 -8 10 C-8.33 10.66 -8.66 11.32 -9 12 C-9 11.01 -9 10.02 -9 9 C-8.34 9 -7.68 9 -7 9 C-6.731875 8.071875 -6.46375 7.14375 -6.1875 6.1875 C-3.88235294 0 -3.88235294 0 0 0 Z " fill="#143C76" transform="translate(181,195)"/>
<path d="M0 0 C1.98 0.66 3.96 1.32 6 2 C2.7321794 4.17854707 -0.38058265 5.49760034 -4 7 C-4 6.01 -4 5.02 -4 4 C-3.34 4 -2.68 4 -2 4 C-1.34 2.68 -0.68 1.36 0 0 Z " fill="#0B285D" transform="translate(183,277)"/>
<path d="M0 0 C0 0.66 0 1.32 0 2 C-3.31114834 3.12880057 -6.58978257 4.21302675 -10 5 C-10 4.01 -10 3.02 -10 2 C-6.42454167 -0.86036666 -4.36137826 -1.37071888 0 0 Z " fill="#1E71AA" transform="translate(221,46)"/>
<path d="M0 0 C2.475 0.495 2.475 0.495 5 1 C5.33 2.65 5.66 4.3 6 6 C5.01 6.33 4.02 6.66 3 7 C0 2.25 0 2.25 0 0 Z " fill="#0E346F" transform="translate(260,206)"/>
<path d="M0 0 C0.99 0.33 1.98 0.66 3 1 C3 1.66 3 2.32 3 3 C4.32 3.33 5.64 3.66 7 4 C6.67 5.32 6.34 6.64 6 8 C2.57701423 6.85900474 1.85241234 5.99914379 0 3 C0 2.01 0 1.02 0 0 Z " fill="#154A86" transform="translate(225,159)"/>
<path d="M0 0 C1.98 0 3.96 0 6 0 C6.66 1.98 7.32 3.96 8 6 C6.68 5.67 5.36 5.34 4 5 C4 4.34 4 3.68 4 3 C2.68 3 1.36 3 0 3 C0 2.01 0 1.02 0 0 Z " fill="#1D86C3" transform="translate(240,68)"/>
<path d="M0 0 C0.99787444 2.99362333 1.05361149 4.49096371 0.75 7.5625 C0.68296875 8.34753906 0.6159375 9.13257813 0.546875 9.94140625 C0 12 0 12 -3 14 C-2.48594831 9.03083364 -1.76615118 4.70973649 0 0 Z " fill="#0D397B" transform="translate(130,280)"/>
<path d="M0 0 C0.66 0.33 1.32 0.66 2 1 C3.26229508 5.47540984 3.26229508 5.47540984 2 8 C1.01 8 0.02 8 -1 8 C-1.93065133 5.39417629 -2.14917407 4.35801776 -1.0625 1.75 C-0.711875 1.1725 -0.36125 0.595 0 0 Z " fill="#134581" transform="translate(76,216)"/>
<path d="M0 0 C4.875 4.625 4.875 4.625 6 8 C5.01 8 4.02 8 3 8 C3 7.34 3 6.68 3 6 C2.34 6 1.68 6 1 6 C1 5.34 1 4.68 1 4 C0.34 4 -0.32 4 -1 4 C-0.67 2.68 -0.34 1.36 0 0 Z " fill="#17558E" transform="translate(289,110)"/>
<path d="M0 0 C0.99 0 1.98 0 3 0 C2.67 1.65 2.34 3.3 2 5 C0.68 5 -0.64 5 -2 5 C-2 5.66 -2 6.32 -2 7 C-2.66 6.67 -3.32 6.34 -4 6 C-1.125 1.125 -1.125 1.125 0 0 Z " fill="#1B70AA" transform="translate(184,69)"/>
<path d="M0 0 C0.66 0 1.32 0 2 0 C1.79375 0.598125 1.5875 1.19625 1.375 1.8125 C0.69328085 4.28450846 0.69328085 4.28450846 3 7 C1.68 7.33 0.36 7.66 -1 8 C-1.33 6.02 -1.66 4.04 -2 2 C-1.34 2 -0.68 2 0 2 C0 1.34 0 0.68 0 0 Z " fill="#071F52" transform="translate(152,292)"/>
<path d="M0 0 C0.99 0.33 1.98 0.66 3 1 C0.525 5.455 0.525 5.455 -2 10 C-2.33 8.68 -2.66 7.36 -3 6 C-2.34 6 -1.68 6 -1 6 C-1.0309375 4.7934375 -1.0309375 4.7934375 -1.0625 3.5625 C-1 1 -1 1 0 0 Z " fill="#0F3871" transform="translate(155,230)"/>
<path d="M0 0 C2.14720899 2.14720899 2.5434221 3.07790143 3 6 C2.67 6.66 2.34 7.32 2 8 C1.01 8 0.02 8 -1 8 C-1.04241723 5.66705225 -1.04092937 3.33297433 -1 1 C-0.67 0.67 -0.34 0.34 0 0 Z " fill="#0D2C64" transform="translate(357,216)"/>
<path d="M0 0 C0.99 0.33 1.98 0.66 3 1 C1.68 2.65 0.36 4.3 -1 6 C-1.66 5.67 -2.32 5.34 -3 5 C-3.625 2.9375 -3.625 2.9375 -4 1 C-2.68 1.33 -1.36 1.66 0 2 C0 1.34 0 0.68 0 0 Z " fill="#1A72B0" transform="translate(130,132)"/>
<path d="M0 0 C1.32 0.33 2.64 0.66 4 1 C3.3125 2.9375 3.3125 2.9375 2 5 C-0.625 5.75 -0.625 5.75 -3 6 C-2 4 -1 2 0 0 Z " fill="#1D75B1" transform="translate(132,125)"/>
<path d="M0 0 C2.97069541 2.54631035 4.4775751 5.42230149 6 9 C5.67 9.66 5.34 10.32 5 11 C2 7.25 2 7.25 2 5 C1.34 5 0.68 5 0 5 C0 3.35 0 1.7 0 0 Z " fill="#0D4184" transform="translate(286,241)"/>
<path d="M0 0 C0.86325845 2.41712366 1.1132654 3.64990694 0.3125 6.125 C-1.2190732 8.31296172 -2.54765115 9.01906046 -5 10 C-3.84414715 6.08788267 -2.64465038 3.1254959 0 0 Z " fill="#104D8D" transform="translate(155,226)"/>
<path d="M0 0 C0.99 0.33 1.98 0.66 3 1 C3.33 2.98 3.66 4.96 4 7 C3.01 7.495 3.01 7.495 2 8 C1.34 7.67 0.68 7.34 0 7 C0 4.69 0 2.38 0 0 Z " fill="#113270" transform="translate(352,209)"/>
<path d="M0 0 C3.88862987 1.26117725 5.89375599 2.45264167 8 6 C8 6.66 8 7.32 8 8 C7.34 8 6.68 8 6 8 C6 7.34 6 6.68 6 6 C4.68 5.34 3.36 4.68 2 4 C2 3.34 2 2.68 2 2 C1.34 2 0.68 2 0 2 C0 1.34 0 0.68 0 0 Z " fill="#115997" transform="translate(222,154)"/>
<path d="M0 0 C2.5625 2.25 2.5625 2.25 5 5 C4.8125 7.3125 4.8125 7.3125 4 9 C4 8.34 4 7.68 4 7 C3.34 7 2.68 7 2 7 C2 6.34 2 5.68 2 5 C1.34 5 0.68 5 0 5 C0 3.35 0 1.7 0 0 Z " fill="#174780" transform="translate(304,129)"/>
<path d="M0 0 C2.2477975 2.05233685 3.0022242 3.00667261 4 6 C3.01 6.33 2.02 6.66 1 7 C1 6.34 1 5.68 1 5 C0.34 5 -0.32 5 -1 5 C-0.67 3.35 -0.34 1.7 0 0 Z " fill="#0E2E6D" transform="translate(345,193)"/>
<path d="M0 0 C0.33 1.32 0.66 2.64 1 4 C0.34 4 -0.32 4 -1 4 C-1 4.66 -1 5.32 -1 6 C-1.66 6 -2.32 6 -3 6 C-3 6.66 -3 7.32 -3 8 C-3.66 8 -4.32 8 -5 8 C-3.8141763 4.62496331 -2.72426311 2.35277269 0 0 Z " fill="#145493" transform="translate(191,176)"/>
<path d="M0 0 C2 1 2 1 3.0625 3.875 C3.371875 4.90625 3.68125 5.9375 4 7 C4.33 7.99 4.66 8.98 5 10 C4.34 10 3.68 10 3 10 C3 9.34 3 8.68 3 8 C2.34 8 1.68 8 1 8 C1 6.68 1 5.36 1 4 C0.34 4 -0.32 4 -1 4 C-0.67 2.68 -0.34 1.36 0 0 Z " fill="#133574" transform="translate(333,172)"/>
<path d="M0 0 C0.33 0.66 0.66 1.32 1 2 C1.66 2.33 2.32 2.66 3 3 C2.34 3 1.68 3 1 3 C1 4.32 1 5.64 1 7 C0.01 7.33 -0.98 7.66 -2 8 C-2 4.23312136 -1.76462683 3.08809695 0 0 Z " fill="#19538A" transform="translate(105,163)"/>
<path d="M0 0 C2.1385485 2.1385485 2.42655063 3.13275314 3 6 C1.68 6.33 0.36 6.66 -1 7 C-1 3 -1 3 0 0 Z " fill="#092562" transform="translate(366,237)"/>
<path d="M0 0 C1.32 0 2.64 0 4 0 C4 1.32 4 2.64 4 4 C4.66 4 5.32 4 6 4 C5.67 5.32 5.34 6.64 5 8 C2 4.25 2 4.25 2 2 C1.34 2 0.68 2 0 2 C0 1.34 0 0.68 0 0 Z " fill="#0F5090" transform="translate(310,144)"/>
<path d="M0 0 C0.66 0 1.32 0 2 0 C1.60196439 2.88575819 1.20990931 3.82189513 -1.0625 5.75 C-1.701875 6.1625 -2.34125 6.575 -3 7 C-2.25 2.25 -2.25 2.25 0 0 Z " fill="#1F70AB" transform="translate(142,113)"/>
<path d="M0 0 C0.66 0.66 1.32 1.32 2 2 C-1.96 3.98 -1.96 3.98 -6 6 C-3.75 1.5 -3.75 1.5 0 0 Z " fill="#082053" transform="translate(175,283)"/>
<path d="M0 0 C2 1 2 1 3.1875 3.375 C4 6 4 6 3 9 C2.67 8.01 2.34 7.02 2 6 C1.34 6 0.68 6 0 6 C0 4.02 0 2.04 0 0 Z " fill="#104184" transform="translate(292,252)"/>
<path d="M0 0 C2.475 0.495 2.475 0.495 5 1 C4.67 1.99 4.34 2.98 4 4 C1.9375 4.6875 1.9375 4.6875 0 5 C0 3.35 0 1.7 0 0 Z " fill="#154E89" transform="translate(204,160)"/>
<path d="M0 0 C0 1.65 0 3.3 0 5 C-1.32 5.33 -2.64 5.66 -4 6 C-4.33 4.35 -4.66 2.7 -5 1 C-1.125 0 -1.125 0 0 0 Z " fill="#1B70AC" transform="translate(126,139)"/>
<path d="M0 0 C0 1.65 0 3.3 0 5 C-0.61875 5.144375 -1.2375 5.28875 -1.875 5.4375 C-4.03258322 5.93152225 -4.03258322 5.93152225 -6 7 C-2.86206897 0 -2.86206897 0 0 0 Z " fill="#1F7AB5" transform="translate(150,105)"/>
<path d="M0 0 C0.66 1.32 1.32 2.64 2 4 C0.68 5.32 -0.64 6.64 -2 8 C-2.20086443 4.28400809 -2.1519437 3.22791555 0 0 Z " fill="#125D9B" transform="translate(88,198)"/>
<path d="M0 0 C1.65 0.99 3.3 1.98 5 3 C4.67 3.99 4.34 4.98 4 6 C3.34 6 2.68 6 2 6 C2 5.34 2 4.68 2 4 C1.34 4 0.68 4 0 4 C0 2.68 0 1.36 0 0 Z " fill="#2187C8" transform="translate(260,86)"/>
<path d="M0 0 C0.99 0 1.98 0 3 0 C3 0.99 3 1.98 3 3 C1.35 3.66 -0.3 4.32 -2 5 C-2 2 -2 2 0 0 Z " fill="#2680BA" transform="translate(189,65)"/>
</svg>
